<svg width="176" height="187" viewBox="0 0 176 187" fill="none" xmlns="http://www.w3.org/2000/svg">
<path opacity="0.3" d="M0.476148 145.718C11.6363 162.288 27.962 174.848 47.0564 181.556C66.1507 188.263 87.0076 188.763 106.565 182.982C126.122 177.202 143.349 165.446 155.716 149.44C168.083 133.434 174.939 114.022 175.278 94.053C175.616 74.0844 169.419 54.6118 157.595 38.4942C145.772 22.3766 128.946 10.4632 109.588 4.50331C90.2299 -1.45662 69.3593 -1.14913 50.0407 5.38066C30.7222 11.9104 13.9734 24.3185 2.25373 40.783L31.9951 60.9682C39.2371 50.7943 49.5866 43.1271 61.524 39.0921C73.4615 35.0572 86.358 34.8672 98.3199 38.55C110.282 42.2328 120.679 49.5944 127.985 59.5539C135.291 69.5134 139.12 81.546 138.911 93.8851C138.702 106.224 134.466 118.22 126.824 128.11C119.181 138.001 108.537 145.265 96.4517 148.837C84.3668 152.409 71.4788 152.1 59.6799 147.955C47.881 143.811 37.7929 136.049 30.8967 125.81L0.476148 145.718Z" fill="#FEFFFF"/>
</svg>
