<svg width="95" height="42" viewBox="0 0 95 42" fill="none" xmlns="http://www.w3.org/2000/svg">
<g style="mix-blend-mode:multiply" opacity="0.3">
<path d="M0 21C0 10.5066 8.50659 2 19 2H46V40H19C8.50659 40 0 31.4934 0 21Z" fill="#FACA10"/>
</g>
<path d="M46 0H74C85.598 0 95 9.40202 95 21C95 32.598 85.598 42 74 42H46V0Z" fill="#FFFCF0"/>
<path d="M46 2H73C83.4934 2 92 10.5066 92 21C92 31.4934 83.4934 40 73 40H46V2Z" fill="#FACA10"/>
<path d="M65 14L72.5 21.5L65 29" stroke="#1E1E1E" stroke-width="2" stroke-linecap="round" stroke-linejoin="round"/>
<path opacity="0.5" d="M26.5 29L19 21.5L26.5 14" stroke="#1E1E1E" stroke-width="2" stroke-linecap="round" stroke-linejoin="round"/>
</svg>
