<svg width="204" height="204" viewBox="0 0 204 204" fill="none" xmlns="http://www.w3.org/2000/svg">
<circle opacity="0.3" cx="102" cy="102" r="101" fill="white" stroke="#FACA10" stroke-width="2"/>
<circle opacity="0.4" cx="102" cy="102" r="89" fill="white" stroke="#FACA10" stroke-width="2"/>
<g filter="url(#filter0_d_202_9)">
<path d="M140.2 173.915H145.064C149.004 173.915 152.033 177.569 149.844 180.845C148.437 182.951 146.583 184.755 144.4 186.142L142.406 187.41C141.443 188.022 141.182 189.313 141.832 190.252C142.446 191.138 143.649 191.383 144.56 190.807L146.71 189.448C149.874 187.449 152.469 184.739 154.264 181.56C156.059 178.382 156.999 174.832 157 171.226V157.983C157 156.927 156.558 155.914 155.77 155.167C154.982 154.42 153.914 154 152.8 154H140.2C139.086 154 138.018 154.42 137.23 155.167C136.443 155.914 136 156.927 136 157.983V169.932C136 170.988 136.443 172.001 137.23 172.748C138.018 173.495 139.086 173.915 140.2 173.915Z" fill="white"/>
</g>
<g filter="url(#filter1_d_202_9)">
<path d="M169.2 173.915H174.064C178.004 173.915 181.033 177.569 178.844 180.845C177.437 182.951 175.583 184.755 173.4 186.142L171.417 187.403C170.449 188.018 170.189 189.317 170.846 190.257C171.464 191.141 172.668 191.382 173.579 190.803L175.71 189.448C178.874 187.449 181.469 184.739 183.264 181.56C185.059 178.382 185.999 174.832 186 171.226V157.983C186 156.927 185.558 155.914 184.77 155.167C183.982 154.42 182.914 154 181.8 154H169.2C168.086 154 167.018 154.42 166.23 155.167C165.443 155.914 165 156.927 165 157.983V169.932C165 170.988 165.443 172.001 166.23 172.748C167.018 173.495 168.086 173.915 169.2 173.915Z" fill="white"/>
</g>
<defs>
<filter id="filter0_d_202_9" x="132" y="154" width="29" height="45.1187" filterUnits="userSpaceOnUse" color-interpolation-filters="sRGB">
<feFlood flood-opacity="0" result="BackgroundImageFix"/>
<feColorMatrix in="SourceAlpha" type="matrix" values="0 0 0 0 0 0 0 0 0 0 0 0 0 0 0 0 0 0 127 0" result="hardAlpha"/>
<feOffset dy="4"/>
<feGaussianBlur stdDeviation="2"/>
<feColorMatrix type="matrix" values="0 0 0 0 0 0 0 0 0 0 0 0 0 0 0 0 0 0 0.2 0"/>
<feBlend mode="normal" in2="BackgroundImageFix" result="effect1_dropShadow_202_9"/>
<feBlend mode="normal" in="SourceGraphic" in2="effect1_dropShadow_202_9" result="shape"/>
</filter>
<filter id="filter1_d_202_9" x="161" y="154" width="29" height="45.1179" filterUnits="userSpaceOnUse" color-interpolation-filters="sRGB">
<feFlood flood-opacity="0" result="BackgroundImageFix"/>
<feColorMatrix in="SourceAlpha" type="matrix" values="0 0 0 0 0 0 0 0 0 0 0 0 0 0 0 0 0 0 127 0" result="hardAlpha"/>
<feOffset dy="4"/>
<feGaussianBlur stdDeviation="2"/>
<feColorMatrix type="matrix" values="0 0 0 0 0 0 0 0 0 0 0 0 0 0 0 0 0 0 0.2 0"/>
<feBlend mode="normal" in2="BackgroundImageFix" result="effect1_dropShadow_202_9"/>
<feBlend mode="normal" in="SourceGraphic" in2="effect1_dropShadow_202_9" result="shape"/>
</filter>
</defs>
</svg>
